<svg xmlns="http://www.w3.org/2000/svg" xmlns:xlink="http://www.w3.org/1999/xlink" viewBox="0 0 110.31 71.92"><defs><style>.cls-1{fill:url(#linear-gradient);}.cls-2{fill:#fff;}.cls-3,.cls-8{font-size:7.15px;}.cls-3{fill:#241e57;font-family:Roboto-Bold, Roboto Bold;font-weight:700;}.cls-4{letter-spacing:-0.01em;}.cls-5{letter-spacing:-0.01em;}.cls-6{letter-spacing:0.01em;}.cls-7{letter-spacing:-0.01em;}.cls-8{fill:#4e4e4e;font-family:Roboto-Medium, Roboto Medium;font-weight:500;}.cls-9{letter-spacing:-0.02em;}.cls-10{letter-spacing:-0.01em;}.cls-11{letter-spacing:-0.01em;}.cls-12{letter-spacing:0.01em;}.cls-13{letter-spacing:0em;}.cls-14{letter-spacing:0em;}.cls-15{letter-spacing:-0.01em;}</style><linearGradient id="linear-gradient" x1="51.52" y1="24.07" x2="63.23" y2="-10.54" gradientUnits="userSpaceOnUse"><stop offset="0" stop-color="#7a3393"/><stop offset="1" stop-color="#683694"/></linearGradient></defs><g id="Layer_2" data-name="Layer 2"><g id="Layer_1-2" data-name="Layer 1"><rect class="cls-1" x="41.69" width="26.87" height="26.87"/><path class="cls-2" d="M57,17.94c0,.59.06,1.11.12,1.62a1.23,1.23,0,0,0,.62.91c.25.16.52.29.76.46.09.07.12.2.18.31-.09,0-.19.13-.29.13H51.84c-.09,0-.18-.1-.28-.15.06-.09.09-.22.18-.28s.5-.3.75-.46a1.29,1.29,0,0,0,.65-1.07c0-.48.07-.94.11-1.47H46c-.68,0-.86-.18-.86-.86V6.35c0-.66.2-.86.85-.86H64.24c.63,0,.83.21.83.84v10.8c0,.61-.2.81-.81.81H57Zm7.13-1.26V6.46h-18V16.68Z"/><path class="cls-2" d="M59.26,8.57c0,.13,0,.25,0,.38,0,.83,0,1.66,0,2.48a1.22,1.22,0,0,0,.17.59c.5.8,1,1.58,1.52,2.36a3,3,0,0,1-3,0,3.17,3.17,0,0,1-1.52-3.49A3.13,3.13,0,0,1,59.26,8.57Z"/><path class="cls-2" d="M62.39,10a3.32,3.32,0,0,1-.88,4.43l-.83-1.27c-.27-.41-.53-.83-.81-1.27Z"/><path class="cls-2" d="M53,12.88c0-.52,0-1,0-1.56,0-.28.09-.41.39-.41,1.08,0,.93-.11.94.91,0,.87,0,1.73,0,2.59,0,.33-.12.44-.45.44-1,0-.88.09-.88-.87Z"/><path class="cls-2" d="M53.8,9.18l-1.67,1.88c-.33.37-.33.37-.73,0L49.89,9.9c-.66.63-1.31,1.25-2,1.85-.12.12-.26.4-.48.18s0-.36.18-.48c.64-.62,1.3-1.21,1.93-1.84a.42.42,0,0,1,.68,0c.49.43,1,.82,1.54,1.24L53.6,8.74a5.33,5.33,0,0,1-.71,0c-.12,0-.21-.14-.32-.21.1-.07.2-.2.31-.2.37,0,.75,0,1.13,0,.22,0,.31.09.31.29,0,.38,0,.76,0,1.14,0,.1-.15.19-.23.29a.77.77,0,0,1-.19-.29,3.37,3.37,0,0,1,0-.55Z"/><path class="cls-2" d="M59.71,11.48V8.31a3.39,3.39,0,0,1,2.48,1.31Z"/><path class="cls-2" d="M49.23,13.22c0-.43,0-.85,0-1.28,0-.25.07-.37.34-.37,1.12,0,1-.16,1,.94,0,.65,0,1.3,0,2,0,.27-.1.39-.38.38-1.07,0-.94.11-.94-.91Z"/><path class="cls-2" d="M52.42,13.54v.86a.49.49,0,0,1,0,.17c-.16.5-.57.2-.87.26s-.42,0-.42-.27c0-.69,0-1.38,0-2.06,0-.1.18-.19.27-.28h0c1.16,0,.95-.14,1,.93C52.43,13.28,52.42,13.41,52.42,13.54Z"/><path class="cls-2" d="M48.65,13.89V14c0,.94-.08,1-1,.87a.39.39,0,0,1-.25-.29c0-.46,0-.92,0-1.38,0-.2.08-.3.3-.29C48.85,12.88,48.63,12.72,48.65,13.89Z"/><text class="cls-3" transform="translate(28 39.25)"><tspan class="cls-4">D</tspan><tspan x="4.66" y="0">ASHB</tspan><tspan class="cls-5" x="21.08" y="0">O</tspan><tspan x="25.91" y="0">ARD AND</tspan><tspan x="15.06" y="8.17">CHA</tspan><tspan class="cls-6" x="28.23" y="8.17">R</tspan><tspan class="cls-7" x="32.14" y="8.17">T</tspan><tspan x="35.65" y="8.17">S</tspan></text><text class="cls-8" transform="translate(1.45 57.08)"><tspan class="cls-9">V</tspan><tspan x="3.87" y="0">isuali</tspan><tspan class="cls-10" x="19.11" y="0">z</tspan><tspan x="22.12" y="0">e </tspan><tspan class="cls-11" x="27.22" y="0">y</tspan><tspan x="30.51" y="0">our p</tspan><tspan class="cls-11" x="46.29" y="0">r</tspan><tspan x="48.55" y="0">oje</tspan><tspan class="cls-12" x="57.79" y="0">c</tspan><tspan x="61.09" y="0">t d</tspan><tspan class="cls-13" x="69" y="0">a</tspan><tspan x="72.41" y="0">ta and t</tspan><tspan class="cls-14" x="95.06" y="0">r</tspan><tspan x="97.36" y="0">ack </tspan><tspan x="40.12" y="8.57">p</tspan><tspan class="cls-11" x="44.18" y="8.57">r</tspan><tspan x="46.45" y="8.57">o</tspan><tspan class="cls-7" x="50.37" y="8.57">g</tspan><tspan class="cls-11" x="54.32" y="8.57">r</tspan><tspan x="56.59" y="8.57">es</tspan><tspan class="cls-15" x="63" y="8.57">s</tspan><tspan x="65.75" y="8.57">.</tspan></text></g></g></svg>