<svg xmlns="http://www.w3.org/2000/svg" xmlns:xlink="http://www.w3.org/1999/xlink" viewBox="0 0 21.6 17.24"><defs><style>.cls-1{fill:url(#linear-gradient);}.cls-2{fill:url(#linear-gradient-2);}.cls-3{fill:url(#linear-gradient-3);}.cls-4{fill:url(#linear-gradient-4);}.cls-5{fill:url(#linear-gradient-5);}.cls-6{fill:url(#linear-gradient-6);}.cls-7{fill:url(#linear-gradient-7);}.cls-8{fill:url(#linear-gradient-8);}.cls-9{fill:url(#linear-gradient-9);}</style><linearGradient id="linear-gradient" y1="8.62" x2="21.6" y2="8.62" gradientUnits="userSpaceOnUse"><stop offset="0" stop-color="#7a3393"/><stop offset="1" stop-color="#683694"/></linearGradient><linearGradient id="linear-gradient-2" x1="12.11" y1="6.74" x2="17.16" y2="6.74" xlink:href="#linear-gradient"/><linearGradient id="linear-gradient-3" x1="15.95" y1="7.3" x2="19.23" y2="7.3" xlink:href="#linear-gradient"/><linearGradient id="linear-gradient-4" x1="8.49" y1="8.02" x2="9.94" y2="8.02" xlink:href="#linear-gradient"/><linearGradient id="linear-gradient-5" x1="2.36" y1="5.06" x2="9.94" y2="5.06" xlink:href="#linear-gradient"/><linearGradient id="linear-gradient-6" x1="15.78" y1="4.78" x2="18.47" y2="4.78" xlink:href="#linear-gradient"/><linearGradient id="linear-gradient-7" x1="4.4" y1="8.37" x2="5.84" y2="8.37" xlink:href="#linear-gradient"/><linearGradient id="linear-gradient-8" x1="6.47" y1="8.74" x2="7.88" y2="8.74" xlink:href="#linear-gradient"/><linearGradient id="linear-gradient-9" x1="2.37" y1="9.1" x2="3.78" y2="9.1" xlink:href="#linear-gradient"/></defs><g id="Layer_2" data-name="Layer 2"><g id="Layer_1-2" data-name="Layer 1"><path class="cls-1" d="M12.83,13.51c0,.64.07,1.2.13,1.76a1.36,1.36,0,0,0,.67,1c.28.17.56.31.82.5.1.07.14.22.21.33-.11.05-.21.14-.32.14H7.24c-.1,0-.2-.1-.3-.16.06-.1.1-.24.19-.3.26-.18.55-.33.82-.5a1.4,1.4,0,0,0,.7-1.17c0-.51.08-1,.12-1.59H.93c-.73,0-.93-.2-.93-.94V.93C0,.22.21,0,.92,0H20.7c.68,0,.9.23.9.9V12.63c0,.66-.21.88-.87.88h-7.9Zm7.74-1.37V1.05H1V12.14Z"/><path class="cls-2" d="M15.29,3.34c0,.14,0,.27,0,.41,0,.9,0,1.8,0,2.7a1.34,1.34,0,0,0,.2.64c.53.86,1.09,1.71,1.64,2.56a3.19,3.19,0,0,1-3.31,0A3.45,3.45,0,0,1,12.2,5.91,3.4,3.4,0,0,1,15.29,3.34Z"/><path class="cls-3" d="M18.69,4.89a3.6,3.6,0,0,1-1,4.81l-.89-1.38L16,7Z"/><path class="cls-4" d="M8.5,8c0-.57,0-1.13,0-1.7,0-.3.1-.44.42-.44,1.17,0,1-.12,1,1,0,.94,0,1.87,0,2.81,0,.35-.13.48-.48.47-1.06,0-1,.1-1-.94C8.49,8.81,8.49,8.42,8.5,8Z"/><path class="cls-5" d="M9.36,4,7.56,6c-.36.41-.36.41-.8,0L5.12,4.78C4.4,5.46,3.7,6.14,3,6.79c-.14.13-.29.44-.53.19s0-.38.2-.52c.7-.66,1.41-1.31,2.09-2a.45.45,0,0,1,.74,0c.54.46,1.1.88,1.67,1.34l2-2.27a4.9,4.9,0,0,1-.78,0c-.12,0-.22-.14-.33-.22.11-.08.21-.22.32-.23.41,0,.83,0,1.24,0a.29.29,0,0,1,.33.33c0,.41,0,.82,0,1.23,0,.11-.16.21-.25.31-.07-.1-.19-.19-.21-.31a4,4,0,0,1,0-.6Z"/><path class="cls-6" d="M15.78,6.5V3.06a3.63,3.63,0,0,1,2.69,1.42Z"/><path class="cls-7" d="M4.4,8.38c0-.46,0-.92,0-1.38,0-.27.08-.41.37-.4,1.22,0,1.05-.17,1.06,1,0,.7,0,1.41,0,2.12,0,.28-.1.42-.41.41-1.15,0-1,.12-1-1Z"/><path class="cls-8" d="M7.87,8.74v.92a.67.67,0,0,1,0,.2c-.17.54-.62.21-.94.28s-.46,0-.46-.3c0-.75,0-1.49,0-2.24,0-.1.19-.2.29-.3h0c1.27,0,1-.15,1.06,1Z"/><path class="cls-9" d="M3.78,9.11v.08c0,1-.09,1.1-1.12.94a.44.44,0,0,1-.28-.31c0-.5,0-1,0-1.49A.29.29,0,0,1,2.7,8C4,8,3.76,7.84,3.78,9.11Z"/></g></g></svg>