<svg xmlns="http://www.w3.org/2000/svg" xmlns:xlink="http://www.w3.org/1999/xlink" viewBox="0 0 21.6 20.47"><defs><style>.cls-1{fill:url(#linear-gradient);}.cls-2{fill:url(#linear-gradient-2);}.cls-3{fill:url(#linear-gradient-3);}.cls-4{fill:url(#linear-gradient-4);}.cls-5{fill:url(#linear-gradient-5);}.cls-6{fill:url(#linear-gradient-6);}.cls-7{fill:url(#linear-gradient-7);}.cls-8{fill:url(#linear-gradient-8);}</style><linearGradient id="linear-gradient" y1="12.08" x2="21.6" y2="12.08" gradientUnits="userSpaceOnUse"><stop offset="0" stop-color="#b1499b"/><stop offset="1" stop-color="#b61d8d"/></linearGradient><linearGradient id="linear-gradient-2" x1="8.33" y1="3.4" x2="16.18" y2="3.4" xlink:href="#linear-gradient"/><linearGradient id="linear-gradient-3" x1="1.91" y1="13.33" x2="12.39" y2="13.33" xlink:href="#linear-gradient"/><linearGradient id="linear-gradient-4" x1="4.69" y1="9.37" x2="9.64" y2="9.37" xlink:href="#linear-gradient"/><linearGradient id="linear-gradient-5" x1="14.54" y1="8.9" x2="20.37" y2="8.9" xlink:href="#linear-gradient"/><linearGradient id="linear-gradient-6" x1="16.07" y1="6.72" x2="18.79" y2="6.72" xlink:href="#linear-gradient"/><linearGradient id="linear-gradient-7" x1="14.55" y1="15.53" x2="20.37" y2="15.53" xlink:href="#linear-gradient"/><linearGradient id="linear-gradient-8" x1="16.06" y1="13.34" x2="18.8" y2="13.34" xlink:href="#linear-gradient"/></defs><g id="Layer_2" data-name="Layer 2"><g id="Layer_1-2" data-name="Layer 1"><path class="cls-1" d="M13.57,17.24V5.77H14v4.82h6.8c0-.09,0-.18,0-.27V5.1c0-.5-.16-.66-.66-.66H16.51V3.7h.24c1.15,0,2.31,0,3.45,0a1.33,1.33,0,0,1,1.4,1.4c0,3.84,0,7.67,0,11.51A1.35,1.35,0,0,1,20.19,18c-2.34,0-4.67,0-7,0h-.35l.36,1.41H16a.54.54,0,0,1,.52.55.53.53,0,0,1-.52.52H5.64a.54.54,0,0,1,0-1.07H8.41L8.78,18H8.43c-2.34,0-4.68,0-7,0A1.36,1.36,0,0,1,0,16.57C0,12.73,0,8.9,0,5.06A1.26,1.26,0,0,1,1.34,3.69H7.81l.22,0v.73H1.46c-.52,0-.68.16-.68.68v11.4c0,.57.14.72.71.72H13.57ZM14,11.09v6.15h6.13c.48,0,.65-.17.65-.65V11.33c0-.08,0-.16,0-.24Z"/><path class="cls-2" d="M8.8,6.79l.67-1.34H9.09a.73.73,0,0,1-.75-.75c0-1.31,0-2.63,0-3.95A.72.72,0,0,1,9.11,0h6.3a.73.73,0,0,1,.77.81V4.65a.73.73,0,0,1-.8.8H11.27a1.28,1.28,0,0,0-.56.16c-.6.36-1.18.75-1.78,1.12C8.91,6.76,8.87,6.76,8.8,6.79Zm3.45-5.35H14.7c.17,0,.34,0,.35-.22S14.89,1,14.72,1H9.82c-.17,0-.34,0-.34.24s.18.22.35.22Zm0,1.52h2.5c.17,0,.32-.07.29-.25s-.19-.15-.3-.21-.08,0-.13,0H9.91a.55.55,0,0,0-.26,0,.29.29,0,0,0-.16.2c0,.07.07.16.14.21a.43.43,0,0,0,.23,0ZM11.88,4H9.77a.52.52,0,0,0-.27.15s0,.18,0,.2a.6.6,0,0,0,.31.1H13.9c.16,0,.34,0,.33-.24S14,4,13.88,4Z"/><path class="cls-3" d="M12.39,15H1.91a6.42,6.42,0,0,1,.18-.81,3.41,3.41,0,0,1,1.7-1.86,9.08,9.08,0,0,1,1.33-.55.39.39,0,0,1,.34.07,2.57,2.57,0,0,0,3.4,0,.42.42,0,0,1,.29-.09,4.89,4.89,0,0,1,2.63,1.59A2.48,2.48,0,0,1,12.39,15Z"/><path class="cls-4" d="M7.14,12A2.46,2.46,0,0,1,5,10.43a2.58,2.58,0,0,1,1-3.38,2.39,2.39,0,0,1,2.64.1,2.43,2.43,0,0,1,1,2.43,2.79,2.79,0,0,1-1.3,2.12A2,2,0,0,1,7.14,12Z"/><path class="cls-5" d="M14.54,9.79a1.64,1.64,0,0,1,.73-1.29,4.24,4.24,0,0,1,.59-.33.74.74,0,0,1,.86,0,1.28,1.28,0,0,0,1.57-.1A.37.37,0,0,1,18.67,8a2.49,2.49,0,0,1,1.42,1,6.6,6.6,0,0,1,.28.73Z"/><path class="cls-6" d="M16.07,6.64a1.34,1.34,0,0,1,1.36-1.39,1.36,1.36,0,0,1,1.36,1.38,1.49,1.49,0,0,1-1.36,1.56A1.47,1.47,0,0,1,16.07,6.64Z"/><path class="cls-7" d="M20.37,16.42H14.56a1,1,0,0,1,.18-.72,2.57,2.57,0,0,1,1.57-1.06.25.25,0,0,1,.2.06,1.41,1.41,0,0,0,1.82,0c.06,0,.15-.09.2-.07a2.47,2.47,0,0,1,1.55,1A4.76,4.76,0,0,1,20.37,16.42Z"/><path class="cls-8" d="M16.06,13.28a1.36,1.36,0,0,1,1.36-1.41,1.39,1.39,0,0,1,1.38,1.42,1.51,1.51,0,0,1-1.37,1.53A1.49,1.49,0,0,1,16.06,13.28Z"/></g></g></svg>