<svg xmlns="http://www.w3.org/2000/svg" xmlns:xlink="http://www.w3.org/1999/xlink" viewBox="0 0 21.49 21.6"><defs><style>.cls-1{fill:url(#linear-gradient);}.cls-2{fill:url(#linear-gradient-2);}.cls-3{fill:url(#linear-gradient-3);}.cls-4{fill:url(#linear-gradient-4);}</style><linearGradient id="linear-gradient" y1="10.8" x2="15.98" y2="10.8" gradientUnits="userSpaceOnUse"><stop offset="0" stop-color="#219cd5"/><stop offset="1" stop-color="#2063af"/></linearGradient><linearGradient id="linear-gradient-2" x1="12.98" y1="1.56" x2="15.94" y2="1.56" xlink:href="#linear-gradient"/><linearGradient id="linear-gradient-3" x1="12.32" y1="16.63" x2="21.49" y2="16.63" xlink:href="#linear-gradient"/><linearGradient id="linear-gradient-4" x1="13.86" y1="16.63" x2="19.94" y2="16.63" xlink:href="#linear-gradient"/></defs><g id="Layer_2" data-name="Layer 2"><g id="Layer_1-2" data-name="Layer 1"><path class="cls-1" d="M15.53,14.27a.14.14,0,0,1,.15,0,1.53,1.53,0,0,1,.17.27,2.53,2.53,0,0,0,.13.22V13.73a3,3,0,0,0,0,5.8V15.3l-.47-.81,0-.06C15.44,14.36,15.46,14.29,15.53,14.27Zm-2,3.55a.46.46,0,0,1-.2.3.78.78,0,0,1-.38,0H3.15a.94.94,0,0,1-.38,0,1.84,1.84,0,0,1-.33-.35,1.86,1.86,0,0,1,.35-.29,1,1,0,0,1,.34,0H13c.1,0,.22,0,.3,0a.67.67,0,0,1,.22.19,3.55,3.55,0,0,1-.17-1.09A3.61,3.61,0,0,1,16,13.15v-1c0-2.79,0-5.57,0-8.36,0-.12,0-.24,0-.35H13.38c-.46,0-.74-.23-.75-.66,0-.91,0-1.82,0-2.77H.61C.07,0,0,.07,0,.62V21c0,.55.06.61.62.61H15.24c.61,0,.72,0,.73-.48a1.93,1.93,0,0,0,0-.25V20.1A3.62,3.62,0,0,1,13.51,17.82Zm-.59-7.35a.81.81,0,0,1,.35,0c.1.05.25.19.24.28a.5.5,0,0,1-.25.32.79.79,0,0,1-.38,0H3.05c-.1,0-.23,0-.3,0s-.3-.2-.28-.29.16-.24.28-.33.17,0,.26,0ZM12.38,7c.12.08.29.21.29.32s-.16.28-.28.33a1.38,1.38,0,0,1-.5,0h-9c-.24,0-.42-.1-.43-.34s.18-.35.42-.34h9.2C12.18,7,12.3,6.91,12.38,7ZM2.92,3.44H10.6c.24,0,.46.06.45.34s-.23.32-.47.32H2.94c-.25,0-.49,0-.49-.34S2.69,3.44,2.92,3.44ZM2.87,14c.09-.05.22,0,.34,0h10l.13,0c.1.06.23.21.22.31s-.13.24-.24.3-.22,0-.34,0H3s-.12,0-.15,0-.27-.22-.41-.33A3.57,3.57,0,0,1,2.87,14Z"/><path class="cls-2" d="M14.47,3.09h-1c-.31,0-.45-.12-.45-.42,0-.75,0-1.49,0-2.24A.49.49,0,0,1,13.21,0a.58.58,0,0,1,.48.1c.73.7,1.46,1.41,2.15,2.15a.72.72,0,0,1,.07.6c0,.1-.28.18-.44.19C15.14,3.11,14.8,3.09,14.47,3.09Z"/><path class="cls-3" d="M16.93,12a4.19,4.19,0,0,0-.95.1A4.66,4.66,0,0,0,13.16,14a5.77,5.77,0,0,0-.4.68,4.61,4.61,0,0,0-.44,2,4.4,4.4,0,0,0,.08.89,6.36,6.36,0,0,0,.18.66,4.59,4.59,0,0,0,3.39,3,4.73,4.73,0,0,0,.93.09,4.59,4.59,0,0,0,0-9.17Zm0,8.18A3.54,3.54,0,0,1,16,20.1a3.62,3.62,0,0,1-2.47-2.28l0-.11a3.55,3.55,0,0,1-.17-1.09A3.61,3.61,0,0,1,16,13.15a3.39,3.39,0,0,1,.91-.12,3.6,3.6,0,0,1,0,7.19Z"/><path class="cls-4" d="M16.89,13.58a2.71,2.71,0,0,0-.91.15,3,3,0,0,0,0,5.8,3.1,3.1,0,0,0,.92.14,3,3,0,1,0,0-6.09Zm1.81,2.53-1.21.48-.12.05a.45.45,0,0,0-.12.12.37.37,0,0,1-.72-.15s0-.07,0-.1,0-.18,0-.26L16,15.3l-.47-.81,0-.06c0-.07,0-.14,0-.16a.14.14,0,0,1,.15,0,1.53,1.53,0,0,1,.17.27,2.53,2.53,0,0,0,.13.22l.78,1.37c0,.06.07.11.15.09a.11.11,0,0,1,.08,0c.12.08.22,0,.34,0l1.24-.49c.14-.06.26,0,.29.12S18.83,16.06,18.7,16.11Z"/></g></g></svg>