<svg xmlns="http://www.w3.org/2000/svg" xmlns:xlink="http://www.w3.org/1999/xlink" viewBox="0 0 21.6 21.81"><defs><style>.cls-1{fill:url(#linear-gradient);}.cls-2{fill:url(#linear-gradient-2);}.cls-3{fill:url(#linear-gradient-3);}.cls-4{fill:url(#linear-gradient-4);}.cls-5{fill:url(#linear-gradient-5);}.cls-6{fill:url(#linear-gradient-6);}.cls-7{fill:url(#linear-gradient-7);}.cls-8{fill:url(#linear-gradient-8);}</style><linearGradient id="linear-gradient" y1="5.58" x2="11.15" y2="5.58" gradientUnits="userSpaceOnUse"><stop offset="0" stop-color="#eec51e"/><stop offset="1" stop-color="#ee9621"/></linearGradient><linearGradient id="linear-gradient-2" x1="5.48" y1="13.17" x2="20.35" y2="13.17" xlink:href="#linear-gradient"/><linearGradient id="linear-gradient-3" x1="18.18" y1="17.53" x2="20.27" y2="17.53" xlink:href="#linear-gradient"/><linearGradient id="linear-gradient-4" x1="4.07" y1="21.47" x2="21.6" y2="21.47" xlink:href="#linear-gradient"/><linearGradient id="linear-gradient-5" x1="9.65" y1="18.27" x2="11.75" y2="18.27" xlink:href="#linear-gradient"/><linearGradient id="linear-gradient-6" x1="13.91" y1="18.81" x2="16.02" y2="18.81" xlink:href="#linear-gradient"/><linearGradient id="linear-gradient-7" x1="5.4" y1="19.26" x2="7.5" y2="19.26" xlink:href="#linear-gradient"/><linearGradient id="linear-gradient-8" x1="2.4" y1="5.58" x2="8.75" y2="5.58" xlink:href="#linear-gradient"/></defs><g id="Layer_2" data-name="Layer 2"><g id="Layer_1-2" data-name="Layer 1"><path class="cls-1" d="M6.58,11.15H4.66c-.06,0-.09,0-.11-.08s-.09-.3-.13-.46a.4.4,0,0,0-.26-.26c-.33-.12-.64-.26-1-.4a.36.36,0,0,0-.35,0l-.43.23a.09.09,0,0,1-.13,0L1,8.86s0-.06,0-.11l.23-.43a.39.39,0,0,0,0-.38C1.06,7.64.93,7.33.81,7a.38.38,0,0,0-.28-.28L.08,6.6S0,6.57,0,6.51V4.65a.09.09,0,0,1,.07-.1l.49-.14A.4.4,0,0,0,.8,4.16c.13-.32.26-.64.4-1a.39.39,0,0,0,0-.35L1,2.42a.1.1,0,0,1,0-.14c.43-.43.87-.86,1.3-1.3a.09.09,0,0,1,.13,0c.14.08.28.16.43.23a.38.38,0,0,0,.36,0L4.15.8A.39.39,0,0,0,4.42.53c0-.15.09-.3.13-.46A.09.09,0,0,1,4.65,0H6.51c.06,0,.08,0,.09.07s.1.3.14.45A.41.41,0,0,0,7,.81c.32.12.64.25,1,.39a.36.36,0,0,0,.35,0L8.82.93l.29.29,1.06,1.06a.1.1,0,0,1,0,.14L10,2.84a.4.4,0,0,0,0,.37c.14.31.27.62.39.94a.4.4,0,0,0,.26.26l.47.14c.06,0,.07,0,.07.1V6.51c0,.06,0,.08-.07.09l-.48.15a.35.35,0,0,0-.25.25c-.12.32-.25.63-.39,1a.38.38,0,0,0,0,.36l.26.49L8.8,10.22,8.32,10a.39.39,0,0,0-.38,0c-.3.14-.61.26-.92.38a.43.43,0,0,0-.28.29ZM5.48,1.72a3.86,3.86,0,1,0,3.95,3.7A3.85,3.85,0,0,0,5.48,1.72Z"/><path class="cls-2" d="M18.48,12.2l-.95.69-1.42,1a.11.11,0,0,0-.05.14,1.13,1.13,0,1,1-2.21.43,1,1,0,0,1,0-.24.11.11,0,0,0-.07-.13L11.6,13a.09.09,0,0,0-.13,0,1.1,1.1,0,0,1-1.41.09.09.09,0,0,0-.12,0L7.76,14.63c-.06,0,0,.07,0,.12A1.13,1.13,0,0,1,7,16.06a1.08,1.08,0,0,1-1.15-.28,1,1,0,0,1-.26-1.17,1.13,1.13,0,0,1,1.7-.55.09.09,0,0,0,.12,0l2.17-1.48a.09.09,0,0,0,0-.12,1.13,1.13,0,1,1,2.23-.15.09.09,0,0,0,.06.1l2.21,1.1.06,0a1.17,1.17,0,0,1,.6-.32,1.09,1.09,0,0,1,.81.16.11.11,0,0,0,.13,0l2.37-1.73a.1.1,0,0,0,0-.12,1.13,1.13,0,1,1,1.74.77,1.14,1.14,0,0,1-1.32-.06Z"/><path class="cls-3" d="M20.27,20.44H18.18V15a.33.33,0,0,1,.37-.37h1.34a.34.34,0,0,1,.38.38v5.44Z"/><path class="cls-4" d="M12.83,21.81H4.47a.37.37,0,0,1-.36-.18.36.36,0,0,1,.29-.51H21.19a.83.83,0,0,1,.22,0,.35.35,0,0,1-.13.65H12.83Z"/><path class="cls-5" d="M11.75,20.44H9.65V16.51a.36.36,0,0,1,.42-.41c.43,0,.86,0,1.29,0a.34.34,0,0,1,.39.38v4Z"/><path class="cls-6" d="M16,20.44H13.91V17.56a.35.35,0,0,1,.39-.38h1.34a.34.34,0,0,1,.38.37v2.89Z"/><path class="cls-7" d="M7.49,20.44H5.4v-2a.34.34,0,0,1,.39-.39h1.3a.37.37,0,0,1,.41.4c0,.62,0,1.23,0,1.85Z"/><path class="cls-8" d="M8.75,5.58A3.18,3.18,0,1,1,5.59,2.4,3.16,3.16,0,0,1,8.75,5.58ZM5.24,4.75v.74a.44.44,0,0,0,.13.33c.21.2.4.4.6.6a.35.35,0,0,0,.51,0,.34.34,0,0,0,0-.5L6,5.49a.26.26,0,0,1-.07-.18V4a.35.35,0,0,0-.34-.38A.34.34,0,0,0,5.24,4Z"/></g></g></svg>