<svg xmlns="http://www.w3.org/2000/svg" xmlns:xlink="http://www.w3.org/1999/xlink" viewBox="0 0 21.6 21.59"><defs><style>.cls-1{fill:url(#linear-gradient);}.cls-2{fill:url(#linear-gradient-2);}.cls-3{fill:url(#linear-gradient-3);}.cls-4{fill:url(#linear-gradient-4);}.cls-5{fill:url(#linear-gradient-5);}</style><linearGradient id="linear-gradient" y1="10.8" x2="15.88" y2="10.8" gradientUnits="userSpaceOnUse"><stop offset="0" stop-color="#83c241"/><stop offset="1" stop-color="#408b41"/></linearGradient><linearGradient id="linear-gradient-2" x1="17.09" y1="13.07" x2="21.53" y2="13.07" xlink:href="#linear-gradient"/><linearGradient id="linear-gradient-3" x1="17.07" y1="20.2" x2="21.55" y2="20.2" xlink:href="#linear-gradient"/><linearGradient id="linear-gradient-4" x1="17" y1="5.4" x2="21.6" y2="5.4" xlink:href="#linear-gradient"/><linearGradient id="linear-gradient-5" x1="0.69" y1="2.64" x2="4.5" y2="2.64" xlink:href="#linear-gradient"/></defs><g id="Layer_2" data-name="Layer 2"><g id="Layer_1-2" data-name="Layer 1"><path class="cls-1" d="M0,5.71H4.6c1,0,1.11-.08,1.11-1.08V0h9.17c.89,0,1,.11,1,1V20.59c0,.91-.1,1-1,1-4.59,0-9.17,0-13.76,0-1,0-1.1-.14-1.1-1.09V5.71ZM8,17c1.59,0,3.18,0,4.77,0,.46,0,.9-.07.89-.61s-.45-.56-.87-.56H3.21c-.44,0-.9,0-.88.62s.45.54.86.54Zm0-3.39H3.13c-.4,0-.78,0-.8.53s.39.6.8.6h9.64c.43,0,.85-.09.85-.59s-.43-.56-.86-.55ZM8,18.2H3.2c-.39,0-.86-.06-.87.52s.48.57.89.57h9.55c.42,0,.86-.05.85-.56s-.46-.54-.87-.53ZM6.8,12.49h3.67c.41,0,.84,0,.85-.55s-.43-.58-.83-.59H3.14c-.41,0-.83.05-.81.6s.39.54.79.54ZM4.05,8.89l-.68-.64C3.1,8,2.82,7.8,2.49,8.14s-.17.66.12.95l.88.88a.62.62,0,0,0,1,0C5.13,9.3,5.78,8.67,6.42,8c.29-.28.62-.59.24-1s-.75-.13-1,.19C5.09,7.77,4.58,8.33,4.05,8.89Z"/><path class="cls-2" d="M21.53,17.58H17.09v-9h4.44Z"/><path class="cls-3" d="M21.54,18.81a2.33,2.33,0,0,1-2.2,2.78c-1.4,0-2.36-1.14-2.27-2.78Z"/><path class="cls-4" d="M17,7.34c.61-1.22,1.16-2.36,1.75-3.48.26-.49.81-.55,1.05-.11C20.42,4.9,21,6.09,21.6,7.34Z"/><path class="cls-5" d="M4.5,4.52H.69L4.5.76Z"/></g></g></svg>