<svg xmlns="http://www.w3.org/2000/svg" xmlns:xlink="http://www.w3.org/1999/xlink" viewBox="0 0 16.82 21.6"><defs><style>.cls-1{fill:url(#linear-gradient);}.cls-2{fill:url(#linear-gradient-2);}.cls-3{fill:url(#linear-gradient-3);}</style><linearGradient id="linear-gradient" y1="12.84" x2="13.7" y2="12.84" gradientUnits="userSpaceOnUse"><stop offset="0" stop-color="#b1499b"/><stop offset="1" stop-color="#b61d8d"/></linearGradient><linearGradient id="linear-gradient-2" x1="4.43" y1="19.51" x2="16.82" y2="19.51" xlink:href="#linear-gradient"/><linearGradient id="linear-gradient-3" x1="1.74" y1="5.09" x2="11.92" y2="5.09" xlink:href="#linear-gradient"/></defs><g id="Layer_2" data-name="Layer 2"><g id="Layer_1-2" data-name="Layer 1"><path class="cls-1" d="M.71,4.08V5.85a1.24,1.24,0,0,0,1,1.26c.12,0,.14.09.08.21A1.22,1.22,0,0,0,2,8.88L3.07,10a1.23,1.23,0,0,0,1.51.2c.16-.09.18-.08.24.11A1.25,1.25,0,0,0,6,11.21H7.62a1.24,1.24,0,0,0,1.23-1c0-.13.09-.16.2-.09a1.25,1.25,0,0,0,1.59-.23c.34-.35.71-.68,1-1a1.27,1.27,0,0,0,.23-1.57c-.08-.14-.06-.19.09-.23A1.25,1.25,0,0,0,13,5.88c0-.53,0-1.06,0-1.59,0-.17,0-.2.2-.18a.65.65,0,0,1,.55.67V16.2c0,.16,0,.2-.2.2H4.82a.57.57,0,0,0-.6.46,3.89,3.89,0,0,0,0,.68v.3c0,.1,0,.19,0,.29,0,.54,0,1.08,0,1.62A2.07,2.07,0,0,1,2.7,21.52,2.12,2.12,0,0,1,0,19.86a2.56,2.56,0,0,1,0-.39V4.73A.63.63,0,0,1,.71,4.08ZM7.11,14.3h4.65c.19,0,.28-.09.28-.27v-.38c0-.27-.07-.35-.34-.35H2.44a.26.26,0,0,0-.27.28c0,.13,0,.26,0,.4s.08.35.35.35Z"/><path class="cls-2" d="M16.81,17.43s0,0,0,.06c0,.72,0,1.44,0,2.17a2.07,2.07,0,0,1-2,1.94H4.43c.11-.17.23-.32.33-.48a3,3,0,0,0,.45-1.63c0-.56,0-1.12,0-1.67v-.39Z"/><path class="cls-3" d="M5.81,9l-.94-.42a.11.11,0,0,0-.15,0l-.58.58c-.13.13-.24.14-.37,0l-1.1-1.1a.22.22,0,0,1,0-.35l.6-.6,0,0c-.12-.33-.25-.64-.36-1a.12.12,0,0,0-.13-.09H2c-.18,0-.25-.08-.25-.25V4.34c0-.2.06-.26.26-.26h.82A.14.14,0,0,0,2.94,4c.13-.31.24-.62.37-1l-.56-.55c-.21-.21-.21-.29,0-.5s.67-.68,1-1a.24.24,0,0,1,.4,0c.19.21.38.4.58.6a.16.16,0,0,0,.12,0l.89-.38a.17.17,0,0,0,0-.12c0-.27,0-.54,0-.81S5.88,0,6.08,0H7.57c.21,0,.28.07.29.28s0,.54,0,.8a.13.13,0,0,0,.1.14c.28.1.55.21.82.33a.14.14,0,0,0,.19,0c.18-.2.37-.38.56-.57a.24.24,0,0,1,.37,0L11,2a.23.23,0,0,1,0,.38L10.39,3a.12.12,0,0,0,0,.17c.12.27.23.55.33.83a.13.13,0,0,0,.14.1h.84c.17,0,.24.07.24.25V5.86a.23.23,0,0,1-.26.26h-.82a.16.16,0,0,0-.12.07c-.13.32-.25.63-.38,1l.58.57c.2.19.2.27,0,.47l-1,1a.23.23,0,0,1-.38,0l-.58-.58a.11.11,0,0,0-.15,0L8,9a.15.15,0,0,0-.12.17c0,.26,0,.51,0,.77s-.07.27-.27.27H6.09c-.23,0-.28,0-.28-.29ZM4.15,5.09A2.68,2.68,0,1,0,6.78,2.41,2.67,2.67,0,0,0,4.15,5.09Z"/></g></g></svg>