<svg xmlns="http://www.w3.org/2000/svg" xmlns:xlink="http://www.w3.org/1999/xlink" viewBox="0 0 21.59 18.1"><defs><style>.cls-1{fill:url(#linear-gradient);}.cls-2{fill:url(#linear-gradient-2);}.cls-3{fill:url(#linear-gradient-3);}.cls-4{fill:url(#linear-gradient-4);}.cls-5{fill:url(#linear-gradient-5);}.cls-6{fill:url(#linear-gradient-6);}.cls-7{fill:url(#linear-gradient-7);}.cls-8{fill:url(#linear-gradient-8);}</style><linearGradient id="linear-gradient" y1="9.05" x2="19.38" y2="9.05" gradientUnits="userSpaceOnUse"><stop offset="0" stop-color="#219cd5"/><stop offset="1" stop-color="#2063af"/></linearGradient><linearGradient id="linear-gradient-2" x1="12.04" y1="9.49" x2="21.59" y2="9.49" xlink:href="#linear-gradient"/><linearGradient id="linear-gradient-3" x1="2.19" y1="8.23" x2="5.46" y2="8.23" xlink:href="#linear-gradient"/><linearGradient id="linear-gradient-4" x1="8.41" y1="6.39" x2="11.53" y2="6.39" xlink:href="#linear-gradient"/><linearGradient id="linear-gradient-5" x1="5.16" y1="8.84" x2="9.62" y2="8.84" xlink:href="#linear-gradient"/><linearGradient id="linear-gradient-6" x1="3.24" y1="4.07" x2="9.92" y2="4.07" xlink:href="#linear-gradient"/><linearGradient id="linear-gradient-7" x1="5.03" y1="5.22" x2="8.2" y2="5.22" xlink:href="#linear-gradient"/><linearGradient id="linear-gradient-8" x1="6.69" y1="8.83" x2="8.09" y2="8.83" xlink:href="#linear-gradient"/></defs><g id="Layer_2" data-name="Layer 2"><g id="Layer_1-2" data-name="Layer 1"><path class="cls-1" d="M7.61,15.77V14.36H2.07a2,2,0,0,1-1.6-.71A2,2,0,0,1,0,12.34V2.06A2,2,0,0,1,2.05,0H17.34A2,2,0,0,1,19.1,1a1.8,1.8,0,0,1,.28,1c0,.3,0,.6,0,.93a2.79,2.79,0,0,0-.32-.23l-.85-.44c-.07,0-.11-.06-.11-.14a.73.73,0,0,0-.82-.8H2.16a1.23,1.23,0,0,0-.27,0,.71.71,0,0,0-.6.61c0,.1,0,.2,0,.3V11a.74.74,0,0,0,.83.83H16.76A.18.18,0,0,1,17,12l.8,2.15.05.16a4.22,4.22,0,0,1-.49,0H11.78a.66.66,0,0,0,0,.13v1.15c0,.11,0,.13.13.13h1.72a1.79,1.79,0,0,1,1.83,1.61.56.56,0,0,1-.63.72H4.54a.54.54,0,0,1-.61-.63,1.8,1.8,0,0,1,1.82-1.7H7.61Z"/><path class="cls-2" d="M19,10.16l1.79,3.66c.23.48.47,1,.71,1.45a.46.46,0,0,1-.05.48,1.66,1.66,0,0,1-.56.49,2.68,2.68,0,0,1-1.32.4.51.51,0,0,1-.57-.39c-.63-1.71-1.27-3.42-1.89-5.12,0-.12-.1-.13-.2-.12a4.35,4.35,0,1,1,3.72-5.17,4.25,4.25,0,0,1-1.49,4.21ZM16.41,3.63a3.06,3.06,0,1,0,3.05,3.08A3.06,3.06,0,0,0,16.41,3.63Z"/><path class="cls-3" d="M2.19,8.11l0-.09a1.84,1.84,0,0,1,.43-1,1.84,1.84,0,0,1,1.52-.63,1.82,1.82,0,0,1,1.1.47c.06,0,.12.13.18.19s0,0,0,.06a2.42,2.42,0,0,0-.4.6,2.14,2.14,0,0,0-.21.6,2.76,2.76,0,0,0-.06.57,2.89,2.89,0,0,0,.08.59c0,.1.06.2.1.3a0,0,0,0,1,0,.06L4.66,10a1.64,1.64,0,0,1-.66.11,1.65,1.65,0,0,1-.69-.15,1.74,1.74,0,0,1-.58-.39,1.73,1.73,0,0,1-.46-.77c0-.12,0-.23-.06-.35l0,0ZM4,9.48h.13a0,0,0,0,0,0-.05s0-.1,0-.15,0-.06.06-.07A.48.48,0,0,0,4.53,9a.49.49,0,0,0,.12-.4.49.49,0,0,0-.17-.33,1.54,1.54,0,0,0-.39-.23.91.91,0,0,1-.29-.19.23.23,0,0,1,0-.33.32.32,0,0,1,.25-.09.29.29,0,0,1,.28.22s0,0,0,0h.22s0,0,0,0a1.18,1.18,0,0,0-.07-.2.44.44,0,0,0-.31-.23.07.07,0,0,1,0-.07A1,1,0,0,0,4.2,7s0,0,0,0a1,1,0,0,1-.24,0s0,0,0,0v.19s0,0,0,0l-.12,0A.47.47,0,0,0,3.54,8a.93.93,0,0,0,.36.26,2.43,2.43,0,0,1,.35.2.27.27,0,0,1,0,.43A.4.4,0,0,1,4,9a.24.24,0,0,1-.2-.13l0-.14s0,0-.05,0H3.46a0,0,0,0,0,0,0,.58.58,0,0,0,.12.33.47.47,0,0,0,.29.18s0,0,0,0v.14s0,.06,0,.06Z"/><path class="cls-4" d="M11.53,6.66s0,.1,0,.15a1.67,1.67,0,0,1-.31.59,1.65,1.65,0,0,1-.51.4,1.67,1.67,0,0,1-.62.16H9.88a.05.05,0,0,1-.06,0,2.4,2.4,0,0,0-.44-.76,2.74,2.74,0,0,0-.57-.51l-.36-.19s0,0,0-.07A1.56,1.56,0,0,1,9,5.14a1.5,1.5,0,0,1,.7-.29,1.47,1.47,0,0,1,1,.15,1.51,1.51,0,0,1,.74.83,2.33,2.33,0,0,1,.07.25s0,0,0,0ZM10,7.46h.08s.06,0,.06,0V7.29a.05.05,0,0,1,0-.06l.11,0a.44.44,0,0,0,.15-.65.78.78,0,0,0-.33-.24l-.27-.15a.21.21,0,0,1-.07-.29.23.23,0,0,1,.16-.1c.15,0,.29,0,.33.19l0,0h.17s.05,0,0,0a1,1,0,0,0-.06-.18.42.42,0,0,0-.25-.18s-.06,0-.05-.07V5.37s0,0,0,0h-.2s0,0,0,0v.15s0,0,0,.05l-.12,0a.41.41,0,0,0-.17.53.51.51,0,0,0,.24.24l.37.2a.23.23,0,0,1,0,.41.37.37,0,0,1-.18,0A.21.21,0,0,1,9.74,7s0-.09,0-.13,0,0,0,0H9.49a0,0,0,0,0,0,0,.45.45,0,0,0,.07.25.39.39,0,0,0,.25.18.07.07,0,0,1,.06.08.33.33,0,0,0,0,.1s0,0,0,0Z"/><path class="cls-5" d="M5.16,8.84a2.23,2.23,0,1,1,2.18,2.23A2.24,2.24,0,0,1,5.16,8.84Zm2.22,1.88A1.89,1.89,0,1,0,5.5,8.89,1.88,1.88,0,0,0,7.38,10.72Z"/><path class="cls-6" d="M3.24,5.74c0-.12,0-.17.17-.21l.31-.13a.09.09,0,0,0,.06-.09,2.19,2.19,0,0,1,.07-.62l0-.12a.07.07,0,0,0,0-.09,1.86,1.86,0,0,0-.27-.22A.2.2,0,0,1,3.5,4a4.24,4.24,0,0,1,.42-.72.2.2,0,0,1,.25-.06c.12.06.25.1.37.15a0,0,0,0,0,.07,0,2.5,2.5,0,0,1,.63-.48s0-.06,0-.09,0-.27,0-.4a.18.18,0,0,1,.11-.18A3,3,0,0,1,5.88,2l.28,0a.34.34,0,0,1,.1,0c.08,0,.12.07.15.14a2.75,2.75,0,0,0,.15.36s0,0,.06,0a2.74,2.74,0,0,1,.56.06l.21.05s0,0,.06,0l.26-.33a.16.16,0,0,1,.21-.06,3.34,3.34,0,0,1,.62.33l.16.12a.18.18,0,0,1,.05.24l-.15.37a.11.11,0,0,0,0,.07A2.93,2.93,0,0,1,9,3.84s0,0,0,.06A.11.11,0,0,0,9.2,4l.33-.05a.22.22,0,0,1,.25.15l.13.37s0,0,0,.06l-.27,0s0,0,0,0l-.06-.17a.05.05,0,0,0-.07,0,1.82,1.82,0,0,1-.4,0,.26.26,0,0,1-.22-.15,2.25,2.25,0,0,0-.51-.67.2.2,0,0,1-.07-.19,1.57,1.57,0,0,1,.13-.42s0,0,0-.07l-.41-.24-.05,0-.19.23L7.55,3a.22.22,0,0,1-.21,0,3.18,3.18,0,0,0-.52-.1H6.53a.24.24,0,0,1-.22-.12l-.17-.34c0-.06,0-.07-.09-.06a1.59,1.59,0,0,0-.44.12s0,0,0,.06a1.23,1.23,0,0,1,0,.47.18.18,0,0,1-.09.13,2.43,2.43,0,0,0-.68.51c-.05.05-.09.1-.17.1l-.17,0-.32-.13h0L3.86,4a.07.07,0,0,0,0,0l.28.26a.24.24,0,0,1,.06.09.19.19,0,0,1,0,.15,2.38,2.38,0,0,0-.13.88A.19.19,0,0,1,4,5.6a1.53,1.53,0,0,1-.4.21,0,0,0,0,0,0,.05l0,.2s0,0,0,0l-.24.07s-.06,0-.06,0S3.26,5.87,3.24,5.74Z"/><path class="cls-7" d="M7.19,6.23A1.07,1.07,0,1,0,5.77,4.67a1,1,0,0,0-.14,1.06,1.06,1.06,0,0,0,.84.66h0l-.13.06-.41.23a.11.11,0,0,1-.11,0A1.58,1.58,0,0,1,5,5.14a1.57,1.57,0,0,1,.42-.91,1.61,1.61,0,0,1,.63-.4,1.33,1.33,0,0,1,.44-.09,2.42,2.42,0,0,1,.38,0A1.72,1.72,0,0,1,7.49,4,1.58,1.58,0,0,1,8,4.6a1.47,1.47,0,0,1,.16.54,1.48,1.48,0,0,1,0,.42,1.57,1.57,0,0,1-.29.69s-.05,0-.07,0a2.45,2.45,0,0,0-.54,0h-.1Z"/><path class="cls-8" d="M7.39,7.42h.15s0,0,0,0v.21s0,.05,0,.05A.53.53,0,0,1,8,8.05a.65.65,0,0,1,.05.2l0,0H7.75l0,0A.29.29,0,0,0,7.41,8a.42.42,0,0,0-.22.05.26.26,0,0,0,0,.43,1.69,1.69,0,0,0,.39.22A1.49,1.49,0,0,1,8,9a.59.59,0,0,1,.13.48.53.53,0,0,1-.26.41l-.2.08s0,0,0,.05v.2s0,.05,0,.05h-.3s0,0,0,0V10s0,0,0,0a.94.94,0,0,1-.23-.1.55.55,0,0,1-.23-.42c0-.13,0-.11.1-.11H7s0,0,0,.05a.29.29,0,0,0,.2.29.42.42,0,0,0,.31,0,.29.29,0,0,0,.18-.34.32.32,0,0,0-.17-.22l-.47-.24a.66.66,0,0,1-.29-.26A.55.55,0,0,1,7,7.81l.18-.07s0,0,0,0V7.47s0,0,0,0Z"/></g></g></svg>