<svg xmlns="http://www.w3.org/2000/svg" xmlns:xlink="http://www.w3.org/1999/xlink" viewBox="0 0 329.38 322.58"><defs><style>.cls-1{fill:url(#linear-gradient);}.cls-2{fill:url(#linear-gradient-2);}.cls-3{fill:url(#linear-gradient-3);}.cls-4{fill:url(#linear-gradient-4);}.cls-5{fill:url(#linear-gradient-5);}.cls-6{fill:url(#linear-gradient-6);}.cls-7{fill:url(#linear-gradient-7);}.cls-8{fill:url(#linear-gradient-8);}.cls-9{fill:url(#linear-gradient-9);}.cls-10{fill:url(#linear-gradient-10);}.cls-11{fill:url(#linear-gradient-11);}.cls-12{fill:url(#linear-gradient-12);}.cls-13{fill:url(#linear-gradient-13);}.cls-14{fill:url(#linear-gradient-14);}.cls-15{fill:url(#linear-gradient-15);}.cls-16{fill:url(#linear-gradient-16);}.cls-17{fill:url(#linear-gradient-17);}.cls-18{fill:url(#linear-gradient-18);}.cls-19{fill:url(#linear-gradient-19);}.cls-20{fill:url(#linear-gradient-20);}</style><linearGradient id="linear-gradient" x1="46.87" y1="290.01" x2="104.89" y2="290.01" gradientUnits="userSpaceOnUse"><stop offset="0" stop-color="#83c23f"/><stop offset="1" stop-color="#3f8a2a"/></linearGradient><linearGradient id="linear-gradient-2" x1="15.43" y1="223.31" x2="174.31" y2="223.31" xlink:href="#linear-gradient"/><linearGradient id="linear-gradient-3" x1="26.1" y1="201.3" x2="104.66" y2="201.3" xlink:href="#linear-gradient"/><linearGradient id="linear-gradient-4" x1="55.95" y1="248.28" x2="208.25" y2="248.28" xlink:href="#linear-gradient"/><linearGradient id="linear-gradient-5" x1="-917.39" y1="2066.76" x2="-859.38" y2="2066.76" gradientTransform="translate(-1521.03 -1105.14) rotate(-74.88)" gradientUnits="userSpaceOnUse"><stop offset="0" stop-color="#7a2f95"/><stop offset="1" stop-color="#6904ac"/></linearGradient><linearGradient id="linear-gradient-6" x1="-948.84" y1="2000.06" x2="-789.96" y2="2000.06" xlink:href="#linear-gradient-5"/><linearGradient id="linear-gradient-7" x1="-938.17" y1="1978.05" x2="-859.61" y2="1978.05" xlink:href="#linear-gradient-5"/><linearGradient id="linear-gradient-8" x1="-908.32" y1="2025.03" x2="-756.01" y2="2025.03" xlink:href="#linear-gradient-5"/><linearGradient id="linear-gradient-9" x1="-2539.54" y1="1332.99" x2="-2481.53" y2="1332.99" gradientTransform="matrix(-0.77, -0.64, 0.64, -0.77, -2483.82, -436.35)" gradientUnits="userSpaceOnUse"><stop offset="0" stop-color="#d51ccc"/><stop offset="1" stop-color="#b60d8e"/></linearGradient><linearGradient id="linear-gradient-10" x1="-2570.99" y1="1266.29" x2="-2412.1" y2="1266.29" xlink:href="#linear-gradient-9"/><linearGradient id="linear-gradient-11" x1="-2560.32" y1="1244.28" x2="-2481.75" y2="1244.28" xlink:href="#linear-gradient-9"/><linearGradient id="linear-gradient-12" x1="-2530.46" y1="1291.26" x2="-2378.16" y2="1291.26" xlink:href="#linear-gradient-9"/><linearGradient id="linear-gradient-13" x1="-2266.5" y1="-890.37" x2="-2208.49" y2="-890.37" gradientTransform="translate(-2174.65 612.92) rotate(144.24)" gradientUnits="userSpaceOnUse"><stop offset="0" stop-color="#209cd5"/><stop offset="1" stop-color="#1161b6"/></linearGradient><linearGradient id="linear-gradient-14" x1="-2297.95" y1="-957.07" x2="-2139.07" y2="-957.07" xlink:href="#linear-gradient-13"/><linearGradient id="linear-gradient-15" x1="-2287.28" y1="-979.08" x2="-2208.72" y2="-979.08" xlink:href="#linear-gradient-13"/><linearGradient id="linear-gradient-16" x1="-2257.43" y1="-932.1" x2="-2105.12" y2="-932.1" xlink:href="#linear-gradient-13"/><linearGradient id="linear-gradient-17" x1="115.04" y1="-1493.66" x2="173.06" y2="-1493.66" gradientTransform="translate(-1418.6 528.75) rotate(68.99)" gradientUnits="userSpaceOnUse"><stop offset="0" stop-color="#fada20"/><stop offset="1" stop-color="#ef9504"/></linearGradient><linearGradient id="linear-gradient-18" x1="83.6" y1="-1560.35" x2="242.48" y2="-1560.35" xlink:href="#linear-gradient-17"/><linearGradient id="linear-gradient-19" x1="94.27" y1="-1582.37" x2="172.83" y2="-1582.37" xlink:href="#linear-gradient-17"/><linearGradient id="linear-gradient-20" x1="124.12" y1="-1535.39" x2="276.42" y2="-1535.39" xlink:href="#linear-gradient-17"/></defs><g id="Layer_2" data-name="Layer 2"><g id="Layer_1-2" data-name="Layer 1"><path class="cls-1" d="M99.57,305.3c-4.09,6-10.1,8.89-16.91,10.87-11,3.22-24.25-1.48-30.6-11.25a29.51,29.51,0,0,1-4.49-23c1.72-8.08,6.69-14.07,13.37-18.81l.15-.1.18-.13c5.35,3.88,18.15,11.37,42,16l.06.24.11.37C106.32,289.12,104.83,297.53,99.57,305.3Z"/><path class="cls-2" d="M174.31,263.52c-20.89,10.93-42.26,16.08-65.52,13.46h0c-31.47-5.3-45.47-15.62-49-18.59l-.16-.14a2.7,2.7,0,0,1-.3-.27l-.23-.2-.21-.2h0c-4.28-3.87-8.43-7.58-12.47-11.41a94.58,94.58,0,0,1-23.21-35.42,110.26,110.26,0,0,1-7.68-37,11.4,11.4,0,0,1,0-2.33c.1-.43.49-.74.76-1.1a3.15,3.15,0,0,1,5.32.29,1.87,1.87,0,0,1,.2.59c1,5.42,1.14,11,2.18,16.41,5.73,29.91,22.14,52.9,47.38,69.16,24.74,15.95,52.14,20,80.87,13.84C159.5,269,166.51,266.06,174.31,263.52Z"/><path class="cls-3" d="M104.66,239.64a115,115,0,0,1-48.71-6A100.8,100.8,0,0,1,44,219.24c-9.64-14.05-15.32-30.08-17.69-47.86a30.51,30.51,0,0,1-.23-3.17c-.1-2.71.42-5.16,3.64-5.64,3.06-.47,4.82,1.06,6,4,2.64,6.75,5,13.66,8.41,20.05A110.45,110.45,0,0,0,73.6,222.42a113.85,113.85,0,0,0,28,16.06C102.65,238.89,103.65,239.27,104.66,239.64Z"/><path class="cls-4" d="M208.25,230.22c-5.38,5-10.43,10.42-16.21,14.9-20.58,15.92-44.16,23-70,21.32a99.26,99.26,0,0,1-61.31-25.55c-1.66-1.48-3.26-3-4.78-4.53a115,115,0,0,0,48.71,6,109.55,109.55,0,0,0,39.85,7,104.69,104.69,0,0,0,43-9.45c6.79-3.15,13.41-6.69,20.1-10.06Z"/><path class="cls-5" d="M263.29,272.83c4.77,5.53,5.95,12.08,6.09,19.17.23,11.5-7.76,23-18.84,26.61a29.6,29.6,0,0,1-23.42-1.68c-7.35-3.78-11.84-10.14-14.67-17.82l-.06-.17-.08-.21c5.15-4.15,15.71-14.55,26.42-36.35h.64C249.44,262.1,257.17,265.73,263.29,272.83Z"/><path class="cls-6" d="M242.46,189.79c5.1,23,4.5,45-4.09,66.76h0s0,0,0,0v0c-13.32,29-26.94,39.82-30.72,42.43l-.17.12-.34.22-.25.16-.25.16h0c-4.86,3.13-9.53,6.17-14.28,9.07a94.65,94.65,0,0,1-40.25,13.17,110.43,110.43,0,0,1-37.74-2.26,10.47,10.47,0,0,1-2.26-.59c-.39-.21-.59-.66-.87-1A3.16,3.16,0,0,1,112.9,313a2.51,2.51,0,0,1,.61,0c5.49.47,10.92,1.78,16.41,2.18,30.37,2.28,56.85-7.57,79.13-27.69C230.9,267.7,242,242.31,243.51,213,243.9,205.51,242.88,198,242.46,189.79Z"/><path class="cls-7" d="M201.24,250.79a115.14,115.14,0,0,1-18.54,45.45,101.08,101.08,0,0,1-17,7.76c-16.08,5.64-33,6.94-50.82,4.59-1-.14-2.09-.36-3.12-.6-2.65-.62-4.87-1.76-4.5-5,.35-3.08,2.29-4.38,5.38-4.72,7.2-.78,14.51-1.3,21.55-2.88a110.29,110.29,0,0,0,42.29-19.12,113.74,113.74,0,0,0,22.82-22.88C200,252.54,200.62,251.67,201.24,250.79Z"/><path class="cls-8" d="M219.17,148.33c3.42,6.5,7.35,12.79,10.16,19.54,10,24,10.66,48.62,2.32,73.14A99.32,99.32,0,0,1,191,293.53c-1.87,1.22-3.74,2.36-5.63,3.43a115.14,115.14,0,0,0,18.55-45.45,109.8,109.8,0,0,0,17.14-36.65,104.81,104.81,0,0,0,2.09-43.93c-1.27-7.38-3-14.69-4.48-22Q218.93,148.62,219.17,148.33Z"/><path class="cls-9" d="M292.79,104.61c7-2.06,13.46-.44,20,2.36,10.57,4.54,17.77,16.58,16.46,28.15A29.56,29.56,0,0,1,318,155.76c-6.47,5.13-14.12,6.6-22.28,6h-.4c-1.67-6.4-6.78-20.32-22.22-39.07l.1-.23.15-.36C277.3,112.8,283.79,107.26,292.79,104.61Z"/><path class="cls-10" d="M208.55,89.32c23.07,4.85,42.84,14.47,59.13,31.28h0s0,0,0,0,0,0,0,0c20.91,24.1,25.16,41,26,45.49l0,.2c0,.15.05.28.07.4a2.72,2.72,0,0,0,0,.3c0,.15,0,.25,0,.29h0c.84,5.72,1.69,11.23,2.37,16.75a94.58,94.58,0,0,1-4.61,42.09A110.27,110.27,0,0,1,274,259.61a11.07,11.07,0,0,1-1.46,1.81,3.27,3.27,0,0,1-1.28.37,3.15,3.15,0,0,1-3.93-3.61,2.25,2.25,0,0,1,.22-.58c2.69-4.81,6.12-9.21,8.75-14.05,14.61-26.73,16.56-54.91,7.42-83.51-8.95-28-27.52-48.6-53.61-62.1C223.47,94.5,216.19,92.33,208.55,89.32Z"/><path class="cls-11" d="M247.12,152a115.08,115.08,0,0,1,33.74,35.64,100.46,100.46,0,0,1,.07,18.67c-1.5,17-7.3,33-16.79,48.18a31,31,0,0,1-1.83,2.59c-1.65,2.16-3.6,3.72-6.4,2.05s-3-3.9-2.07-6.85c2.26-6.88,4.8-13.75,6.26-20.82a110.33,110.33,0,0,0,0-46.41,114,114,0,0,0-11.42-30.23Q247.93,153.44,247.12,152Z"/><path class="cls-12" d="M161.18,93.44c7.33-.43,14.68-1.42,22-1.19,26,.8,48.68,10.35,67.58,28.06A99.29,99.29,0,0,1,281.82,179c.34,2.2.6,4.38.8,6.54a115.16,115.16,0,0,0-33.75-35.65,109.69,109.69,0,0,0-26.31-30.73,104.6,104.6,0,0,0-39.16-20c-7.24-1.88-14.6-3.36-21.91-5C161.39,93.9,161.28,93.67,161.18,93.44Z"/><path class="cls-13" d="M133.14,29.16c-.21-7.29,3-13.12,7.37-18.71,7.08-9.07,20.55-13,31.41-8.76A29.56,29.56,0,0,1,189,17.77c3.32,7.57,2.79,15.33.14,23.08l-.06.17-.07.21c-6.61,0-21.37,1.38-43.43,11.54l-.2-.16-.31-.24C137.12,46.23,133.42,38.54,133.14,29.16Z"/><path class="cls-14" d="M96.92,106.74C107.48,85.67,121.81,69,142.21,57.52h0c28.63-14.09,46-13.9,50.61-13.54h.21l.4.05.3,0a1.76,1.76,0,0,1,.29,0h0c5.74.64,11.29,1.23,16.8,2a94.71,94.71,0,0,1,39.54,15.18A110.25,110.25,0,0,1,278.25,86.8a11,11,0,0,1,1.38,1.88,3.3,3.3,0,0,1,0,1.33,3.15,3.15,0,0,1-4.49,2.88,2.06,2.06,0,0,1-.5-.36c-4-3.83-7.36-8.26-11.36-12-22.13-20.93-48.89-30-78.87-28.44-29.4,1.53-54,14.25-73.71,36C105.72,93.63,101.77,100.12,96.92,106.74Z"/><path class="cls-15" d="M167.39,85.41a114.9,114.9,0,0,1,43.06-23.56,100.71,100.71,0,0,1,18.06,4.68c16,5.77,30,15.46,42.33,28.5.72.77,1.39,1.59,2,2.43,1.66,2.15,2.67,4.44.34,6.71s-4.54,2-7.15.27C260,100.5,254,96.29,247.54,93.08a110.44,110.44,0,0,0-44.88-11.85,114.09,114.09,0,0,0-32.14,3.36C169.46,84.85,168.43,85.12,167.39,85.41Z"/><path class="cls-16" d="M88.84,153.6c1.45-7.2,2.37-14.55,4.45-21.57,7.39-24.94,22.4-44.44,44.33-58.21a99.32,99.32,0,0,1,64.69-15.1q3.31.35,6.52.89a115.19,115.19,0,0,0-43.06,23.56,109.28,109.28,0,0,0-36.41,17.63A104.56,104.56,0,0,0,100,133.56c-3.67,6.53-7,13.27-10.43,19.92Z"/><path class="cls-17" d="M21.63,155.34c-7.11-1.66-11.92-6.25-16.22-11.9-7-9.15-7.3-23.17-.46-32.6a29.54,29.54,0,0,1,19.9-12.45C33,97.11,40.39,99.6,47.2,104.14l.15.09.19.12c-1.71,6.4-4.11,21,.09,45l-.2.15-.3.23C39.15,155.84,30.77,157.46,21.63,155.34Z"/><path class="cls-18" d="M87.43,210.13c-17.69-15.58-30.16-33.69-36.06-56.34h0s0,0,0,0c-6.33-31.28-1.72-48-.21-52.39,0-.07.05-.14.07-.2s.1-.26.15-.38.07-.18.1-.27.1-.24.11-.28h0c2.08-5.39,4.06-10.6,6.19-15.74A94.56,94.56,0,0,1,82.51,50.13a110.53,110.53,0,0,1,31.81-20.44,11.53,11.53,0,0,1,2.17-.85,3.39,3.39,0,0,1,1.3.31,3.16,3.16,0,0,1,1.64,5.08,2.86,2.86,0,0,1-.47.39c-4.72,2.86-9.87,5-14.55,7.92C78.54,58.61,63,82.17,56.83,111.57c-6,28.81,0,55.84,16.08,80.45C77,198.27,82.26,203.75,87.43,210.13Z"/><path class="cls-19" d="M84.74,136.55A115.1,115.1,0,0,1,72.93,88.91a100.42,100.42,0,0,1,9.13-16.28c9.66-14,22.58-25.08,38.34-33.67.93-.5,1.89-.94,2.87-1.35,2.5-1.07,5-1.46,6.57,1.37s.73,4.89-1.56,7c-5.36,4.88-11,9.61-15.7,15a110.08,110.08,0,0,0-22.89,40.38,113.84,113.84,0,0,0-4.94,31.93C84.73,134.4,84.73,135.47,84.74,136.55Z"/><path class="cls-20" d="M130.68,229.88c-6.59-3.24-13.47-6-19.72-9.8-22.24-13.5-37.28-33-45-57.7A99.25,99.25,0,0,1,67.83,96Q69,92.86,70.35,89.9a115.13,115.13,0,0,0,11.82,47.64,109.52,109.52,0,0,0,7.77,39.71A104.53,104.53,0,0,0,114.16,214c5.37,5.21,11,10.12,16.6,15.16C130.73,229.37,130.7,229.62,130.68,229.88Z"/></g></g></svg>